<?xml version="1.0" encoding="utf-8"?>
<!-- Generator: Adobe Illustrator 25.0.0, SVG Export Plug-In . SVG Version: 6.00 Build 0)  -->
<svg version="1.1" id="Layer_1" xmlns="http://www.w3.org/2000/svg" xmlns:xlink="http://www.w3.org/1999/xlink" x="0px" y="0px"
	 viewBox="0 0 841.9 726" style="enable-background:new 0 0 841.9 726;" xml:space="preserve">
<style type="text/css">
	.st0{fill:#FFA500;}
</style>
<path class="st0" d="M491.5,339.6c-0.5-20-0.9-40.1-1.5-60.2c-0.4-12.2-3.9-23.6-9.3-34.6c-3.7-7.5-9.2-10.6-17.1-8.3
	c-11.9,3.5-23.6,1.8-35.7,0.7c-17.5-1.5-35,3.1-52.7,1.2c-5.2-0.6-8.4,2.9-10.7,7.6c-2.5,5.2,0.4,11.5-6.5,16.6
	c-4.1,3-3.3,13-3.2,20.1c0,2.5,2.5,9-4.9,4.9c-1.4-0.8-2.7,0.4-2.3,2c2,7.4-2.6,14.9,1.2,22.5c2.9,5.7-0.1,12.4,0.4,20.1
	c-5.4-7.1-5.1-14.1-6.1-20.6c-1-6.7-2.1-13.3-6.6-18.5c-2.4-2.8-2.8-5.9-3.1-9.2c-1.2-15.4-1.2-30.7,1.9-45.9
	c0.5-2.5,4.7-7.4-2.8-7.1c-0.4,0-1.1-1.2-1.1-1.3c4.5-5-1.4-13,6.2-17.9c7-4.6,13.9-10.4,18-18.4c0.4-0.6,0.7-1.1,1.1-1.7
	c-0.8,0.1-1.6,0.1-2.4,0.2c-2.2-0.2-4.4,2.1-6.9,0c3.3-7.3,9-12.2,16.2-15.3c6.4-2.8,13.5-4.9,6.2-16.1c12.7,6.5,23.6,7.8,35.7,4.6
	c-2.2-3.5-4-6.4-6-9.6c22.1,3.3,41.9,12.3,61.9,21c7.7,3.4,15.9,7.9,26,0.8c-4.2,9.9,2.7,12.7,8,16.5c7.8,5.6,12.6,12.2,10.2,22.9
	c-1.1,4.9,1,10.8,2.3,16c2.8,10.5,3.8,20.8-0.2,31.2c-3,7.8,2.6,15.9-0.4,23.7c-6.5,16.8-9.8,34.5-13.6,52
	C493,339.4,492.2,339.5,491.5,339.6z"/>
<path class="st0" d="M499.4,293.1c-0.4,1-1.1,1.6-2,2.2c-1.8,1.2-2.6,3-3.2,5c-1.2,3.6-2,7.3-3,10.9c-0.9,3.3-1.9,6.5-3.6,9.5
	c-3.3,5.6-8.3,9.2-14.4,11.1c-9.8,3-19.3,2.1-28.4-2.5c-4.9-2.5-8.4-6.5-11.2-11.2c-2.4-4.1-4-8.6-5.4-13.1
	c-0.5-1.9-1.2-3.6-2.5-5.2c-0.7-0.8-1.5-1.4-2.6-1.3c-1.3,0-2.6-0.2-3.9-0.1c-1,0.1-1.7,0.5-2.2,1.4c-1.2,2.1-1.8,4.5-2.5,6.9
	c-2,7.7-6,14.2-11.6,19.8c-4,3.9-8.8,6.1-14.3,6.8c-6.2,0.8-12.4,0.8-18.5-0.9c-3.8-1-7.5-2.5-10.6-5.1c-1.7-1.5-3-3.2-4-5.3
	c-2.9-6.5-5.3-13.3-6.9-20.2c-0.4-1.7-1.2-3.1-2.3-4.3c-0.6-0.7-1.2-1.4-1.9-2.1c-1-1.1-1.8-2.4-2-3.9c0-0.1,0-0.3-0.2-0.3
	c0-2.5,0-4.9,0-7.3c6.4-1.3,12.8-2.6,19.2-3.9c4.8-1,9.6-1.5,14.5-1.4c9.9,0.3,19.6,1.8,29.1,4.1c8.9,2.2,17.9,2.6,26.9,1.1
	c5.8-0.9,11.4-2.1,17.2-3.2c5.2-1,10.4-1.8,15.7-2c7.1-0.2,14,1,20.9,2.5c3.4,0.7,6.7,2,10.2,2.5c1.5,0.2,2.7,0.8,3.2,2.3
	c0,0.8,0,1.6,0,2.5c-0.3,0.9-0.2,1.7,0,2.6C499.4,291.5,499.4,292.3,499.4,293.1z M385,283.3c-6.1,0-11,0.5-15.9,1.2
	c-3.1,0.4-6.1,1.1-9,2.5c-3,1.6-4.9,3.9-5.2,7.4c-0.2,2.8-0.1,5.6,0.4,8.5c0.6,4.2,1.7,8.3,3.1,12.3c2.2,6.5,6.3,10.9,13.1,12.5
	c4.9,1.2,9.9,1.5,14.9,0.7c6.3-1,11.6-3.8,15.8-8.6c2.3-2.7,3.9-5.8,5.3-9c1.7-3.9,3.4-7.8,3.8-12c0.4-3.9-0.8-7-4-9.4
	c-1.3-1-2.7-1.8-4.2-2.4C396.9,284.4,390.5,283.2,385,283.3z M459.2,283.3c-3.3,0-6.5,0.2-9.7,0.9c-3.8,0.8-7.5,1.7-10.9,3.4
	c-2.7,1.4-5.1,3.1-6.2,6.2c-1,2.6-0.7,5.2-0.1,7.9c1,4.1,2.7,7.9,4.5,11.7c4.5,9.3,12,14.3,22.2,15.3c4,0.4,7.9,0,11.8-0.8
	c3.3-0.7,6.4-2,8.9-4.4c2.6-2.5,4.2-5.6,5.3-9c2-6.4,3.5-12.8,3.2-19.5c-0.1-3-1.5-5.4-4-7.1c-1.7-1.1-3.6-1.9-5.6-2.4
	C472.2,283.9,465.7,283.5,459.2,283.3z"/>
<path class="st0" d="M246.6,513.9l175.1,57l173.7-59l0,0c-0.1-2.8-0.1-5.6-0.1-8.4c0.1-17.3-4.8-33-14.7-47.2
	c-4.6-6.5-9.5-12.2-17.2-15.8c-22.4-10.4-44.5-21.4-66.7-32.1c-1.7-0.8-3-1.8-4.2-3.4c-3.1-4.5-10-6.9-14.6-5.5
	c-0.5,7.6-33.4,20.2-54.9,20.9c-19.3,0.6-58.2-12.7-58.8-21c-6.4-0.4-12,1.1-15.5,7.2c-0.3,0.5-1,0.8-1.6,1.1
	c-19,9.2-38.1,18.4-57.1,27.6c-10.4,5-20.9,9.5-27.9,19.9c-10.7,16-15.6,33.2-15.4,52.2C246.6,509.5,246.6,511.7,246.6,513.9
	L246.6,513.9z"/>
</svg>
